# Blender v2.82 (sub 7) OBJ File: ''
# www.blender.org
mtllib rock_uv.mtl
o Standard_200
v -0.586285 0.542324 0.264530
v -0.487622 0.386389 -0.092662
v -0.609667 0.246078 0.105136
v -0.273990 0.647815 0.436089
v -0.427651 0.656432 0.059096
v -0.331480 0.563959 -0.173979
v -0.147773 0.645867 -0.089539
v 0.317086 0.522967 -0.622220
v -0.018212 0.545517 -0.570199
v 0.027701 0.785130 -0.412532
v 0.273232 0.754231 -0.437209
v -0.231266 0.596725 -0.453121
v -0.404333 0.351131 -0.486188
v -0.025226 0.279403 -0.617072
v -0.621404 0.017305 -0.417054
v -0.688729 -0.001859 -0.033059
v -0.598200 0.242386 -0.181850
v -0.341779 -0.072293 -0.578032
v -0.217751 0.141405 -0.685400
v -0.606119 0.517616 0.476044
v -0.193193 0.825370 0.173457
v -0.055259 0.811222 0.047365
v -0.777935 0.185344 0.459280
v -0.752527 0.241648 0.289297
v -0.661963 0.014242 0.163542
v 0.536722 0.544807 -0.522025
v 0.475210 0.461986 -0.762403
v 0.153714 0.319485 -0.790001
v 0.307034 0.846217 -0.227731
v -0.105481 1.019988 0.420719
v 0.088658 0.937704 0.148626
v 0.000345 0.914303 0.660423
v 0.229450 1.101985 0.503542
v 0.460728 0.989473 0.634721
v 0.624901 0.943869 0.456861
v 0.263699 0.795644 0.758915
v 0.379451 1.066360 0.233913
v 0.653881 0.852809 -0.343123
v 0.455527 1.069743 -0.084027
v 0.223528 0.972100 -0.090522
v 0.598679 1.053715 0.037153
v -0.292137 0.701517 0.677041
v -0.191121 0.815923 0.805421
v -0.130198 0.714186 0.993163
v 0.862007 0.830834 0.406241
v 0.753635 0.833434 0.063554
v 0.660590 0.592654 -0.485933
v 0.499508 0.819432 -0.426531
v 0.830777 0.719456 -0.196358
v -0.525047 0.315670 0.684159
v -0.383974 0.474795 0.999015
v -0.442131 0.592064 0.833657
v -0.623875 0.009269 0.889487
v -0.346023 0.158857 1.100707
v -0.334586 -0.142543 0.985081
v -0.432929 -0.313311 0.765340
v -0.048109 -0.524249 0.598254
v -0.132987 -0.254802 0.841840
v -0.013504 0.274118 1.064861
v 0.045201 -0.058728 0.956364
v 0.167702 0.660575 0.962418
v 0.147203 0.457182 0.969818
v 0.277602 0.265581 1.041330
v 0.043417 -0.396241 0.759845
v 0.550193 0.555526 0.982504
v 0.328730 -0.102185 0.894052
v 0.250301 -0.303604 0.791161
v 0.423011 0.177131 0.847098
v 0.452761 -0.107593 0.766716
v -0.733825 -0.022062 0.730322
v -0.610225 -0.187883 0.695860
v 0.413701 -0.336875 0.460669
v 0.679847 0.275609 0.786142
v 0.733831 0.566888 0.605934
v 0.664918 0.800927 0.763108
v -0.193896 -0.119973 -0.839169
v -0.005456 0.108139 -0.811128
v 0.085164 -0.288571 -0.945203
v -0.133434 -0.501739 -0.829159
v 0.272639 -0.018441 -0.971102
v 0.495656 0.168135 -0.865898
v 0.445981 -0.223261 -0.899803
v 0.577101 -0.345907 -0.651274
v 0.234553 -0.509672 -0.866735
v -0.360287 -0.355593 -0.564679
v 0.693298 0.383434 -0.676114
v 0.721048 0.050262 -0.690787
v 0.020089 -0.619387 -0.568782
v 0.669768 0.094750 0.676347
v 0.572673 -0.014826 0.366494
v 0.847809 0.209623 0.317125
v 0.725279 0.289229 0.505303
v 0.955087 0.436261 0.271875
v 0.880199 0.268543 0.080501
v 0.831632 0.401136 -0.185784
v 0.807957 0.648665 0.013862
v 0.545423 -0.081461 0.490547
v 0.708521 -0.130375 0.140589
v 0.689093 0.421329 -0.350966
v -0.167603 -0.597431 0.262592
v 0.099127 -0.597109 0.289604
v -0.195088 -0.603742 0.487031
v -0.138424 -0.673041 0.074564
v 0.185575 -0.558189 -0.054214
v 0.078848 -0.647019 -0.261559
v 0.304982 -0.384428 -0.405427
v 0.229960 -0.414803 0.452817
v 0.297407 -0.494736 0.134405
v 0.341998 -0.338790 -0.078987
v 0.699071 -0.260503 -0.465806
v 0.455392 -0.411638 0.226286
v 0.480061 -0.311244 0.055120
v 0.570560 -0.271183 -0.163882
v 0.776969 -0.103278 -0.258965
v 0.771591 -0.044730 -0.011637
v 0.763425 0.230119 -0.334247
v -0.703073 -0.156414 0.323635
v -0.656461 -0.321419 0.140525
v -0.566921 -0.240569 -0.055220
v -0.563740 -0.294093 -0.343850
v -0.527069 -0.411984 -0.215224
v -0.812426 -0.080921 0.571904
v -0.646812 -0.375115 0.481468
v -0.251210 -0.452111 -0.290195
v -0.398370 -0.416192 0.243965
v -0.374026 -0.604292 -0.024294
v -0.143651 -0.599568 -0.172172
vt 0.901059 -0.168445
vt 1.329364 -0.363960
vt 1.232254 -0.070606
vt 0.571455 -0.418736
vt 1.009096 -0.484891
vt 1.274147 -0.646479
vt 1.087076 -0.813350
vt 1.572674 -1.454057
vt 1.606483 -1.133283
vt 1.300310 -1.221650
vt 1.269061 -1.441527
vt 1.520160 -0.904707
vt 1.736631 -0.630747
vt 2.593819 2.313192
vt 2.352876 2.225611
vt 2.593819 1.807683
vt 1.905540 -0.213976
vt 1.532293 0.062887
vt 1.532368 -0.232320
vt -0.083563 0.678297
vt -0.458036 0.757681
vt -0.319658 0.334004
vt 1.932551 1.844250
vt 1.981589 2.222019
vt 1.725605 2.072591
vt -0.004403 0.371439
vt 0.697785 -0.023925
vt 0.729353 -0.729490
vt 0.828043 -0.914709
vt 0.942591 0.304911
vt 1.083840 0.160254
vt 1.309152 0.134739
vt 1.390057 -1.612443
vt 1.704896 -1.639626
vt 1.905540 -1.283863
vt 2.355888 2.507845
vt 2.593819 1.856334
vt 2.791664 1.807683
vt 2.791664 2.163281
vt 0.990146 -1.410620
vt 0.340305 -0.783502
vt 0.611634 -1.060693
vt 0.112605 -0.694145
vt 0.109602 -1.088978
vt 0.391382 0.512754
vt 0.474130 0.708032
vt 0.099791 0.637383
vt -0.950529 0.675078
vt -1.040478 0.340303
vt -0.724033 0.334004
vt 0.133892 0.931192
vt 1.004061 -1.791664
vt 0.676437 -1.591067
vt 0.804378 -1.330004
vt 0.319067 1.624618
vt 0.069593 1.270559
vt 0.208921 1.126377
vt 0.366881 -1.350130
vt 0.514698 -1.647936
vt 0.295268 -0.302823
vt 0.069593 -0.388670
vt -0.589579 1.028713
vt -0.597650 0.687032
vt -0.458036 0.924841
vt 0.709590 0.783139
vt 0.530900 1.172768
vt -0.026843 1.095587
vt 0.055063 1.198479
vt -0.110399 1.391125
vt 0.055063 1.590340
vt 0.539583 1.892704
vt 0.235799 1.749777
vt 1.155596 -1.677438
vt 2.593819 2.437008
vt 2.737193 2.163281
vt 2.737193 2.623188
vt 0.605385 1.498450
vt -1.791664 2.408058
vt -1.694261 2.021182
vt -1.551475 2.226358
vt -0.110399 1.518781
vt -0.458036 1.657925
vt -0.267013 1.095587
vt -0.478331 2.014698
vt -0.692425 1.740971
vt -0.461996 1.420771
vt -0.878166 2.021182
vt 2.118077 0.308557
vt 1.743883 0.601786
vt 1.747643 0.304911
vt -0.858752 2.021182
vt -0.858752 2.537734
vt -1.060788 2.316307
vt -1.551475 2.283399
vt -1.329613 2.021182
vt -1.329613 2.368951
vt 0.058375 1.590340
vt 0.058375 2.056763
vt -0.110399 1.678869
vt 2.733314 -0.148197
vt 2.597301 -0.525906
vt 2.733314 -0.644142
vt -0.975649 1.424968
vt -1.230326 1.711453
vt -1.403111 2.696626
vt -0.935943 0.906319
vt -1.034511 1.127534
vt -1.288474 1.261722
vt -1.152895 1.993315
vt -1.420385 2.021182
vt -1.404223 0.797279
vt -1.554299 1.581081
vt -1.586222 1.813135
vt -1.060788 2.430757
vt -1.329613 2.430757
vt -1.277341 2.021182
vt -1.487699 1.232378
vt -1.684313 1.491539
vt -1.551475 2.668398
vt 2.226954 0.481506
vt 2.005750 0.603381
vt 2.705416 0.290040
vt 2.597301 0.101115
vt 2.705416 -0.148197
vt -0.809573 0.334004
vt -1.037503 0.227642
vt -0.709272 0.159991
vt -0.949804 -0.192432
vt -1.699658 0.972450
vt 0.998157 0.304911
vt 0.968810 0.692207
vt 0.743430 0.427153
vt -1.372969 0.439450
vt 0.233484 -0.022860
vt 1.905540 -1.106174
vt 1.931769 -1.388314
vt 2.285105 -1.219831
vt 2.236306 -0.840339
vt 2.274071 -1.567761
vt 1.958969 2.517474
vt 1.981589 2.791664
vt 1.645046 2.629405
vt 2.372936 -1.791664
vt 2.597417 -1.474768
vt -0.977765 -1.527702
vt -1.466788 -1.712803
vt -1.071968 -1.791664
vt 2.597417 -1.094239
vt 1.607009 1.807683
vt 1.433630 2.116292
vt 1.712874 2.328842
vt -0.251395 2.286194
vt 0.002847 2.065873
vt 0.002847 2.390515
vt 1.942995 -0.644142
vt 0.504313 1.968209
vt 0.707891 2.187912
vt 0.473214 2.276050
vt 0.748850 2.513604
vt 1.056971 2.343614
vt 1.105696 2.724987
vt 1.388209 2.487771
vt -0.592983 2.389646
vt -0.858752 2.386898
vt -0.592983 2.021182
vt 2.597301 -0.331246
vt 2.597301 0.089809
vt 2.214615 0.014509
vt 2.501514 -0.685130
vt -1.704821 -1.321713
vt -0.373309 0.012255
vt -0.594986 -0.332109
vt -0.179001 -0.443279
vt 1.433630 0.825109
vt 1.301808 1.149573
vt 1.212150 0.923224
vt 1.292354 0.625345
vt 0.069593 -0.516027
vt -0.219139 -0.197734
vt -0.147659 -0.726490
vt 0.932140 1.623279
vt 0.733354 1.300099
vt 1.119300 1.088982
vt 1.182708 1.380922
vt -0.012410 -0.079463
vt -0.645110 -0.181849
vt -0.571198 -0.624783
vt -1.791664 1.142839
vt 0.774413 1.814061
vt -1.740163 -0.310140
vt -1.466051 -0.331856
vt -1.734276 -0.041785
vt -1.515271 0.059699
vt -1.791664 -0.536803
vt -1.411202 -0.751598
vt -1.611823 -0.973801
vt -1.236336 -1.185574
vt -1.187522 -0.165463
vt -1.225134 -0.552544
vt -1.114257 -0.810247
vt -0.767666 -1.334200
vt -0.995916 -0.475892
vt -0.934298 -0.680567
vt -0.853615 -0.954903
vt -0.551618 -1.106302
vt 1.433630 2.231866
vt 1.387716 1.927023
vt -0.477237 -0.815066
vt 1.016941 1.868552
vt 1.406915 1.630164
vt -0.580562 -1.599781
vt 2.725254 -1.496790
vt 2.597417 -1.700588
vt 2.725254 -1.791664
vt -1.312136 0.231644
vt 2.670080 0.865141
vt 2.251262 0.990961
vt 2.562938 0.694603
vt 2.450973 1.107829
vt 2.535532 1.328718
vt 2.143121 1.266328
vt 2.242194 1.465341
vt 2.310709 1.807683
vt 2.122807 1.716547
vt -0.288330 1.095587
vt -0.004403 0.969717
vt 2.289347 0.669103
vt -0.110399 1.933441
vt -0.313705 2.065874
vt -0.392857 1.862836
vt 1.944115 0.909939
vt 2.187648 1.923415
vt 2.352876 1.807683
vt 2.352876 2.225303
vt 2.562886 -0.644142
vt 2.241149 -0.451467
vt 1.843077 1.226892
vt 1.763440 1.602690
vt -0.476599 2.476527
vt -0.592983 2.236163
vt -0.476599 2.021182
vt 1.981589 2.206331
vt 2.207787 2.430751
vt 1.433630 1.060657
vt 1.504302 1.554774
vt 1.987706 2.493664
vt 2.346590 2.681876
vt 1.905540 -0.203668
vt -0.458036 2.270560
vt -0.251395 2.065873
vt -0.251395 2.501736
vt -0.858752 2.549910
vt -0.627436 2.389646
vt -0.627436 2.622768
vt 2.670080 1.757953
vt 1.515430 1.311705
vt -1.738142 0.334004
vn -0.8932 0.2657 -0.3627
vn -0.4043 0.8957 0.1853
vn -0.8180 0.4090 -0.4045
vn -0.7545 0.4408 -0.4862
vn -0.1952 0.8814 -0.4302
vn -0.0902 0.5594 -0.8239
vn 0.0001 0.6247 -0.7809
vn -0.2893 0.5642 -0.7733
vn -0.7848 0.5818 -0.2135
vn -0.3745 0.3779 -0.8467
vn -0.2919 0.1734 -0.9406
vn -0.9534 0.2594 -0.1542
vn -0.8153 0.4564 -0.3563
vn -0.4658 0.1213 -0.8766
vn -0.7082 0.6740 -0.2103
vn -0.5908 0.8064 0.0267
vn -0.3940 0.9185 -0.0337
vn -0.1556 0.6040 -0.7816
vn -0.7019 0.0504 -0.7105
vn -0.7806 0.6237 -0.0392
vn -0.7802 0.5864 -0.2177
vn -0.3561 0.9314 0.0754
vn -0.6474 0.7089 0.2801
vn -0.2757 0.7711 -0.5739
vn -0.4371 0.7060 -0.5573
vn -0.8873 0.4603 -0.0294
vn -0.8737 0.4855 0.0302
vn -0.7405 0.3628 -0.5657
vn -0.9449 0.3247 -0.0419
vn -0.9631 0.2452 0.1110
vn 0.0614 0.9387 -0.3391
vn -0.0701 0.6675 -0.7413
vn -0.7041 0.1411 -0.6959
vn 0.2686 0.6323 -0.7267
vn 0.0731 0.9088 -0.4109
vn -0.7899 0.5875 -0.1758
vn -0.9110 0.4124 -0.0014
vn -0.3589 0.7911 -0.4953
vn -0.3203 0.8065 0.4970
vn 0.3805 0.9175 0.1160
vn -0.1314 0.6261 0.7686
vn 0.3788 0.9212 0.0890
vn -0.2543 0.6368 -0.7279
vn -0.5625 0.8017 -0.2019
vn 0.4127 0.8288 -0.3779
vn -0.2466 0.6347 -0.7324
vn -0.3846 0.9194 -0.0823
vn -0.3826 0.9201 -0.0834
vn -0.1786 0.9576 -0.2259
vn 0.0853 0.9959 0.0310
vn 0.2599 0.9380 0.2293
vn -0.3605 0.7975 -0.4838
vn -0.2521 0.8617 -0.4404
vn -0.3790 0.8968 -0.2284
vn -0.9020 0.4019 -0.1575
vn -0.1197 0.8878 0.4443
vn -0.8090 0.5745 0.1246
vn 0.1607 0.8167 0.5542
vn -0.0720 0.8670 0.4932
vn 0.4560 0.8676 0.1986
vn 0.8057 0.5367 -0.2507
vn 0.0013 0.6404 0.7680
vn 0.1387 0.3420 -0.9294
vn -0.0482 0.3222 -0.9454
vn 0.3436 0.4587 -0.8195
vn -0.2431 0.9020 -0.3569
vn 0.2163 0.7814 -0.5853
vn -0.5475 0.8241 -0.1455
vn -0.0915 0.9713 -0.2194
vn 0.8152 0.5526 -0.1736
vn 0.6622 0.7384 -0.1273
vn -0.9234 0.0733 0.3767
vn -0.8902 0.4142 0.1896
vn -0.6507 0.1607 0.7421
vn -0.4494 -0.3348 0.8282
vn -0.5086 -0.5546 0.6586
vn -0.0543 -0.6790 0.7321
vn -0.0028 -0.7890 0.6144
vn -0.5772 0.6247 0.5259
vn -0.4865 0.6228 0.6128
vn -0.0034 0.3060 0.9520
vn -0.1030 0.1333 0.9857
vn 0.1960 -0.2725 0.9420
vn 0.1471 -0.3494 0.9254
vn 0.1944 -0.6204 0.7598
vn 0.2011 0.7698 0.6058
vn 0.1071 0.0254 0.9939
vn 0.2897 0.2283 0.9295
vn 0.0855 0.3989 0.9130
vn 0.0682 -0.2983 0.9520
vn -0.0017 -0.5032 0.8642
vn 0.1819 0.7776 0.6019
vn -0.1001 0.2874 0.9526
vn 0.1497 -0.3496 0.9249
vn 0.1156 -0.4872 0.8656
vn -0.0413 0.0405 0.9983
vn 0.6107 -0.4407 0.6579
vn 0.7578 -0.1490 0.6352
vn 0.7084 -0.1222 0.6952
vn -0.9119 0.0534 0.4070
vn -0.6176 -0.5724 0.5393
vn -0.6168 -0.5729 0.5398
vn -0.2373 -0.6915 0.6822
vn 0.0943 -0.5013 0.8601
vn 0.5926 -0.5373 0.6001
vn 0.6638 -0.6367 0.3923
vn 0.3586 -0.4190 0.8341
vn 0.8988 -0.0291 0.4374
vn -0.0160 0.5509 0.8344
vn -0.0166 0.6707 0.7415
vn -0.5379 0.8399 0.0718
vn -0.6681 0.7330 -0.1276
vn -0.1921 0.2745 -0.9422
vn -0.3994 -0.0872 -0.9126
vn -0.4166 0.2042 -0.8858
vn 0.0159 0.4766 -0.8790
vn 0.4077 0.0273 -0.9127
vn 0.6187 -0.5243 -0.5851
vn 0.1625 -0.2307 -0.9594
vn -0.1018 -0.3931 -0.9138
vn 0.1583 -0.2025 -0.9664
vn -0.8297 0.2248 -0.5109
vn -0.2753 0.7067 -0.6518
vn -0.4073 0.4352 -0.8029
vn -0.8671 0.0332 -0.4971
vn -0.7886 -0.1406 -0.5987
vn 0.4450 0.8055 -0.3914
vn 0.4468 0.3247 -0.8336
vn 0.6391 0.0869 -0.7642
vn 0.6106 -0.0089 -0.7919
vn 0.7572 -0.3313 -0.5630
vn -0.0643 0.3275 -0.9427
vn -0.2711 0.7325 -0.6244
vn -0.3443 0.3465 -0.8726
vn -0.6445 0.5395 -0.5418
vn -0.5698 -0.8210 -0.0350
vn -0.0589 -0.9223 -0.3820
vn 0.4389 -0.8984 -0.0149
vn 0.6382 -0.7666 0.0711
vn 0.8574 0.1795 0.4823
vn 0.9777 -0.1462 0.1511
vn 0.7633 -0.2416 0.5992
vn 0.9051 -0.4248 0.0181
vn 0.9939 0.0063 0.1100
vn 0.8976 0.3395 -0.2813
vn 0.9841 -0.0865 0.1550
vn 0.8759 -0.0634 0.4784
vn 0.4626 0.8250 0.3246
vn 0.8962 0.0944 -0.4334
vn 0.8355 0.0100 0.5494
vn 0.9132 0.3068 -0.2682
vn 0.7632 -0.2408 0.5996
vn 0.8549 -0.5115 -0.0870
vn 0.9197 -0.3915 0.0284
vn 0.5603 -0.5508 0.6186
vn 0.7093 -0.6833 0.1733
vn 0.5177 -0.1819 0.8360
vn 0.3760 -0.4961 0.7827
vn 0.7388 0.3388 -0.5826
vn 0.8805 -0.1942 -0.4324
vn 0.9556 0.2320 0.1819
vn 0.7558 -0.0197 -0.6546
vn 0.9809 0.1699 -0.0943
vn 0.5403 0.7873 0.2969
vn 0.8925 0.1058 0.4384
vn 0.0040 -0.9996 -0.0276
vn 0.2427 -0.9119 0.3310
vn 0.3251 -0.9454 -0.0253
vn 0.7310 -0.6768 -0.0863
vn 0.5144 -0.7467 0.4217
vn 0.4699 -0.8825 0.0183
vn 0.7715 -0.5797 -0.2624
vn 0.8136 -0.5813 -0.0110
vn 0.3120 -0.9451 0.0968
vn 0.6172 -0.7223 0.3121
vn 0.3065 -0.9059 0.2923
vn 0.5485 -0.7256 -0.4156
vn 0.5863 -0.7328 -0.3453
vn 0.3166 -0.9431 0.1014
vn 0.3547 -0.8707 0.3408
vn 0.2593 -0.9633 -0.0691
vn 0.6790 -0.6847 0.2648
vn 0.9568 -0.2119 -0.1992
vn 0.8918 -0.3602 0.2735
vn 0.6699 -0.4154 0.6153
vn 0.6587 -0.6866 -0.3078
vn 0.6478 -0.7466 -0.1516
vn 0.6856 -0.7116 0.1532
vn 0.6700 -0.7190 0.1848
vn 0.8900 -0.4534 -0.0480
vn 0.9990 0.0432 0.0115
vn 0.9922 0.0123 -0.1241
vn -0.0361 -0.9291 0.3680
vn 0.4528 -0.8092 0.3743
vn 0.3226 -0.9224 0.2126
vn 0.8488 -0.3481 -0.3979
vn 0.9828 0.0890 -0.1617
vn 0.9325 0.3599 -0.0299
vn 0.9872 0.1596 -0.0058
vn -0.0418 0.6685 -0.7426
vn 0.7496 0.2374 -0.6178
vn 0.9574 -0.2074 -0.2009
vn 0.9280 -0.2372 -0.2874
vn 0.9140 -0.3675 0.1720
vn 0.8507 -0.4670 0.2413
vn 0.3661 -0.8904 0.2706
vn 0.3587 -0.8930 0.2719
vn 0.4956 -0.7952 0.3492
vn -0.9720 -0.1372 -0.1907
vn -0.9092 -0.1466 -0.3897
vn -0.9903 -0.0256 0.1369
vn -0.9651 -0.2593 0.0375
vn -0.7436 -0.2804 -0.6070
vn -0.9193 -0.0462 -0.3909
vn -0.8995 0.2638 0.3483
vn -0.9689 0.0011 -0.2476
vn -0.7864 -0.3543 -0.5061
vn -0.9660 -0.2581 -0.0133
vn -0.8735 -0.4120 -0.2595
vn -0.2734 -0.7467 -0.6064
vn -0.4266 -0.8928 -0.1444
vn -0.6290 -0.5292 0.5695
vn -0.2911 -0.9463 -0.1408
vn -0.7314 -0.6754 -0.0941
vn -0.4654 -0.7440 0.4795
vn -0.9209 0.1293 -0.3678
vn -0.3593 -0.7287 -0.5830
vn -0.2677 -0.7777 -0.5688
vn -0.4278 -0.8526 -0.3001
vn -0.4278 -0.7579 0.4926
vn -0.1594 -0.9471 -0.2786
vn -0.3828 -0.7312 -0.5647
vn -0.5097 -0.8601 0.0201
vn -0.7167 0.3399 0.6090
vn -0.7902 0.0240 -0.6124
vn -0.8854 -0.4588 0.0753
vn -0.9590 -0.2197 -0.1791
vn -0.5008 -0.0081 -0.8655
vn -0.5692 -0.8198 -0.0621
vn 0.6881 -0.6991 -0.1945
vn 0.3926 -0.9011 0.1840
vn -0.3021 -0.9153 -0.2662
vn -0.6143 -0.7605 0.2105
vn -0.6099 -0.7865 -0.0968
vn -0.4023 -0.7834 0.4737
vn -0.1108 -0.7334 0.6707
vn -0.6100 -0.5423 0.5777
vn -0.6265 -0.5761 0.5249
vn -0.7043 0.5038 0.5001
vn -0.7477 0.5189 0.4144
usemtl Default_OBJ
s off
f 1/1/1 2/2/1 3/3/1
f 4/4/2 5/5/2 1/1/2
f 1/1/3 5/5/3 2/2/3
f 5/5/4 6/6/4 2/2/4
f 5/5/5 7/7/5 6/6/5
f 8/8/6 9/9/6 10/10/6
f 11/11/7 8/8/7 10/10/7
f 10/10/8 9/9/8 12/12/8
f 12/12/9 13/13/9 6/6/9
f 9/9/10 13/13/10 12/12/10
f 9/14/11 14/15/11 13/16/11
f 15/17/12 16/18/12 17/19/12
f 15/17/13 17/19/13 13/13/13
f 18/20/14 15/21/14 13/22/14
f 17/19/15 2/2/15 13/13/15
f 10/10/16 12/12/16 7/7/16
f 7/7/17 12/12/17 6/6/17
f 13/23/18 14/24/18 19/25/18
f 18/20/19 13/22/19 19/26/19
f 3/3/20 2/2/20 17/19/20
f 13/13/21 2/2/21 6/6/21
f 20/27/22 4/4/22 1/1/22
f 4/4/23 21/28/23 5/5/23
f 21/28/24 7/7/24 5/5/24
f 21/28/25 22/29/25 7/7/25
f 20/27/26 1/1/26 23/30/26
f 24/31/27 23/30/27 1/1/27
f 1/1/28 3/3/28 24/31/28
f 3/3/29 17/19/29 16/18/29
f 25/32/30 3/3/30 16/18/30
f 26/33/31 27/34/31 8/8/31
f 8/8/32 28/35/32 9/9/32
f 9/14/33 28/36/33 14/15/33
f 26/37/34 8/38/34 11/39/34
f 11/11/35 10/10/35 29/40/35
f 10/10/36 7/7/36 22/29/36
f 4/4/37 30/41/37 21/28/37
f 30/41/38 31/42/38 21/28/38
f 32/43/39 33/44/39 30/41/39
f 34/45/40 35/46/40 33/47/40
f 36/48/41 34/49/41 33/50/41
f 35/46/42 37/51/42 33/47/42
f 38/52/43 29/40/43 39/53/43
f 40/54/44 22/29/44 31/42/44
f 38/55/45 39/56/45 41/57/45
f 29/40/46 40/54/46 39/53/46
f 39/53/47 40/54/47 37/58/47
f 40/54/48 31/42/48 37/58/48
f 33/44/49 37/58/49 30/41/49
f 41/59/50 39/53/50 37/58/50
f 41/57/51 37/51/51 35/46/51
f 31/42/52 22/29/52 21/28/52
f 30/41/53 37/58/53 31/42/53
f 20/27/54 42/60/54 4/4/54
f 42/60/55 30/41/55 4/4/55
f 43/61/56 32/43/56 30/41/56
f 42/60/57 43/61/57 30/41/57
f 44/62/58 36/48/58 32/63/58
f 44/62/59 32/63/59 43/64/59
f 45/65/60 41/57/60 35/46/60
f 45/65/61 46/66/61 41/57/61
f 36/48/62 33/50/62 32/63/62
f 47/67/63 26/68/63 48/69/63
f 26/68/64 11/70/64 48/69/64
f 47/71/65 48/72/65 38/55/65
f 48/73/66 11/11/66 29/40/66
f 29/74/67 10/75/67 40/76/67
f 40/54/68 10/10/68 22/29/68
f 48/73/69 29/40/69 38/52/69
f 46/66/70 38/55/70 41/57/70
f 49/77/71 38/55/71 46/66/71
f 50/78/72 51/79/72 52/80/72
f 50/81/73 53/82/73 51/83/73
f 53/84/74 54/85/74 51/86/74
f 53/84/75 55/87/75 54/85/75
f 53/88/76 56/89/76 55/90/76
f 56/91/77 57/92/77 58/93/77
f 55/94/78 56/95/78 58/96/78
f 43/97/79 51/98/79 44/99/79
f 43/100/80 52/101/80 51/102/80
f 51/86/81 54/85/81 59/103/81
f 44/62/82 51/86/82 59/103/82
f 54/85/83 60/104/83 59/103/83
f 54/85/84 55/87/84 60/104/84
f 55/94/85 58/96/85 60/105/85
f 44/62/86 61/106/86 36/48/86
f 44/62/87 62/107/87 61/106/87
f 44/62/88 59/103/88 62/107/88
f 59/103/89 63/108/89 62/107/89
f 63/108/90 59/103/90 60/104/90
f 58/109/91 64/110/91 60/104/91
f 36/48/92 61/106/92 65/111/92
f 62/107/93 63/108/93 65/111/93
f 63/108/94 60/104/94 66/112/94
f 60/104/95 67/113/95 66/112/95
f 62/107/96 65/111/96 61/106/96
f 63/114/97 68/115/97 65/116/97
f 63/108/98 66/112/98 68/117/98
f 66/112/99 69/118/99 68/117/99
f 20/119/100 50/78/100 52/80/100
f 70/120/101 71/121/101 53/88/101
f 71/121/102 56/89/102 53/88/102
f 57/122/103 64/123/103 58/124/103
f 64/110/104 67/113/104 60/104/104
f 66/125/105 67/126/105 69/127/105
f 69/127/106 67/126/106 72/128/106
f 65/111/107 68/117/107 73/129/107
f 65/130/108 74/131/108 75/132/108
f 36/48/109 75/133/109 34/49/109
f 36/48/110 65/111/110 75/133/110
f 20/27/111 52/134/111 42/60/111
f 52/134/112 43/61/112 42/60/112
f 76/135/113 77/136/113 78/137/113
f 76/135/114 78/137/114 79/138/114
f 78/137/115 77/136/115 80/139/115
f 28/140/116 81/141/116 80/142/116
f 81/143/117 82/144/117 80/139/117
f 83/145/118 84/146/118 82/147/118
f 84/148/119 78/137/119 82/144/119
f 79/138/120 78/137/120 84/148/120
f 78/137/121 80/139/121 82/144/121
f 18/149/122 19/25/122 76/150/122
f 19/25/123 14/24/123 77/151/123
f 19/25/124 77/151/124 76/150/124
f 18/152/125 76/153/125 85/154/125
f 85/155/126 76/135/126 79/138/126
f 26/156/127 86/157/127 27/158/127
f 86/157/128 81/159/128 27/158/128
f 86/157/129 87/160/129 81/159/129
f 81/159/130 87/160/130 82/161/130
f 87/160/131 83/162/131 82/161/131
f 27/163/132 81/164/132 28/165/132
f 27/34/133 28/35/133 8/8/133
f 28/140/134 80/142/134 77/151/134
f 28/140/135 77/151/135 14/24/135
f 85/166/136 79/167/136 88/168/136
f 88/169/137 79/138/137 84/148/137
f 88/170/138 84/146/138 83/145/138
f 89/171/139 90/172/139 91/173/139
f 89/174/140 91/175/140 92/176/140
f 92/176/141 73/177/141 89/174/141
f 91/173/142 93/178/142 92/179/142
f 91/173/143 94/180/143 93/178/143
f 95/181/144 49/77/144 96/182/144
f 46/66/145 45/65/145 96/182/145
f 74/131/146 73/177/146 92/176/146
f 75/132/147 74/131/147 45/65/147
f 75/132/148 45/65/148 35/46/148
f 96/182/149 93/183/149 94/184/149
f 74/131/150 93/183/150 45/65/150
f 45/65/151 93/183/151 96/182/151
f 92/179/152 93/178/152 74/185/152
f 97/186/153 90/172/153 89/171/153
f 98/187/154 94/180/154 91/173/154
f 90/172/155 98/187/155 91/173/155
f 69/127/156 97/186/156 89/171/156
f 69/118/157 89/188/157 68/117/157
f 68/117/158 89/188/158 73/129/158
f 47/71/159 38/55/159 49/77/159
f 47/71/160 49/77/160 99/189/160
f 49/77/161 46/66/161 96/182/161
f 99/189/162 49/77/162 95/181/162
f 95/181/163 96/182/163 94/184/163
f 34/45/164 75/132/164 35/46/164
f 65/130/165 73/177/165 74/131/165
f 100/190/166 101/191/166 102/192/166
f 102/192/167 101/191/167 57/193/167
f 101/191/168 103/194/168 104/195/168
f 105/196/169 106/197/169 104/195/169
f 57/193/170 101/191/170 107/198/170
f 101/191/171 104/195/171 108/199/171
f 104/195/172 109/200/172 108/199/172
f 104/195/173 106/197/173 109/200/173
f 106/197/174 110/201/174 109/200/174
f 101/191/175 108/199/175 107/198/175
f 108/199/176 111/202/176 107/198/176
f 108/199/177 109/200/177 112/203/177
f 111/202/178 108/199/178 112/203/178
f 109/200/179 110/201/179 113/204/179
f 107/198/180 111/202/180 72/128/180
f 109/200/181 113/204/181 112/203/181
f 113/204/182 110/201/182 114/205/182
f 110/206/183 87/160/183 114/207/183
f 72/128/184 111/202/184 90/172/184
f 111/202/185 98/187/185 90/172/185
f 111/202/186 112/203/186 98/187/186
f 112/203/187 115/208/187 98/187/187
f 112/203/188 113/204/188 115/208/188
f 113/204/189 114/205/189 115/208/189
f 72/128/190 90/172/190 97/186/190
f 114/207/191 116/209/191 115/210/191
f 87/160/192 116/209/192 114/207/192
f 100/190/193 103/194/193 101/191/193
f 106/197/194 88/170/194 83/145/194
f 106/197/195 83/145/195 110/201/195
f 83/145/196 87/211/196 110/201/196
f 86/157/197 116/209/197 87/160/197
f 116/209/198 86/157/198 99/189/198
f 99/189/199 86/157/199 47/71/199
f 86/212/200 26/213/200 47/214/200
f 95/181/201 116/209/201 99/189/201
f 115/210/202 116/209/202 95/181/202
f 115/210/203 95/181/203 94/184/203
f 115/208/204 94/180/204 98/187/204
f 69/127/205 72/128/205 97/186/205
f 67/126/206 107/198/206 72/128/206
f 67/126/207 64/215/207 107/198/207
f 57/193/208 107/198/208 64/215/208
f 24/216/209 117/217/209 23/218/209
f 117/217/210 24/216/210 25/219/210
f 25/219/211 16/220/211 118/221/211
f 119/222/212 120/223/212 121/224/212
f 120/225/213 15/21/213 85/226/213
f 23/218/214 117/217/214 122/227/214
f 23/228/215 122/229/215 70/230/215
f 25/219/216 118/221/216 117/217/216
f 16/220/217 119/222/217 118/221/217
f 117/217/218 118/221/218 123/231/218
f 117/217/219 123/231/219 122/227/219
f 121/232/220 120/233/220 124/234/220
f 120/235/221 85/166/221 124/236/221
f 122/227/222 123/231/222 71/121/222
f 123/231/223 118/221/223 125/237/223
f 118/221/224 121/224/224 126/238/224
f 118/221/225 126/238/225 125/237/225
f 118/239/226 119/240/226 121/241/226
f 126/242/227 124/234/227 127/243/227
f 121/232/228 124/234/228 126/242/228
f 102/244/229 123/231/229 125/237/229
f 125/237/230 126/238/230 103/245/230
f 126/242/231 127/243/231 103/246/231
f 127/243/232 124/234/232 105/247/232
f 124/236/233 88/168/233 105/248/233
f 50/249/234 20/250/234 23/251/234
f 3/252/235 25/253/235 24/254/235
f 119/222/236 16/220/236 120/223/236
f 16/220/237 15/255/237 120/223/237
f 15/21/238 18/20/238 85/226/238
f 124/236/239 85/166/239 88/168/239
f 105/196/240 88/170/240 106/197/240
f 103/194/241 105/196/241 104/195/241
f 103/246/242 127/243/242 105/247/242
f 125/237/243 103/245/243 100/256/243
f 102/244/244 125/237/244 100/256/244
f 123/231/245 102/244/245 56/89/245
f 57/193/246 56/257/246 102/192/246
f 71/121/247 123/231/247 56/89/247
f 70/120/248 122/227/248 71/121/248
f 70/230/249 50/81/249 23/228/249
f 50/81/250 70/230/250 53/82/250
