v -0.586 0.542 0.265
v -0.488 0.386 -0.093
v -0.61 0.246 0.105
v -0.274 0.648 0.436
v -0.428 0.656 0.059
v -0.331 0.564 -0.174
v -0.148 0.646 -0.09
v 0.317 0.523 -0.622
v -0.018 0.546 -0.57
v 0.028 0.785 -0.413
v 0.273 0.754 -0.437
v -0.231 0.597 -0.453
v -0.404 0.351 -0.486
v -0.025 0.279 -0.617
v -0.621 0.017 -0.417
v -0.689 -0.002 -0.033
v -0.598 0.242 -0.182
v -0.342 -0.072 -0.578
v -0.218 0.141 -0.685
v -0.606 0.518 0.476
v -0.193 0.825 0.173
v -0.055 0.811 0.047
v -0.778 0.185 0.459
v -0.753 0.242 0.289
v -0.662 0.014 0.164
v 0.537 0.545 -0.522
v 0.475 0.462 -0.762
v 0.154 0.319 -0.79
v 0.307 0.846 -0.228
v -0.105 1.02 0.421
v 0.089 0.938 0.149
v 0 0.914 0.66
v 0.229 1.102 0.504
v 0.461 0.989 0.635
v 0.625 0.944 0.457
v 0.264 0.796 0.759
v 0.379 1.066 0.234
v 0.654 0.853 -0.343
v 0.456 1.07 -0.084
v 0.224 0.972 -0.091
v 0.599 1.054 0.037
v -0.292 0.702 0.677
v -0.191 0.816 0.805
v -0.13 0.714 0.993
v 0.862 0.831 0.406
v 0.754 0.833 0.064
v 0.661 0.593 -0.486
v 0.5 0.819 -0.427
v 0.831 0.719 -0.196
v -0.525 0.316 0.684
v -0.384 0.475 0.999
v -0.442 0.592 0.834
v -0.624 0.009 0.889
v -0.346 0.159 1.101
v -0.335 -0.143 0.985
v -0.433 -0.313 0.765
v -0.048 -0.524 0.598
v -0.133 -0.255 0.842
v -0.014 0.274 1.065
v 0.045 -0.059 0.956
v 0.168 0.661 0.962
v 0.147 0.457 0.97
v 0.278 0.266 1.041
v 0.043 -0.396 0.76
v 0.55 0.556 0.983
v 0.329 -0.102 0.894
v 0.25 -0.304 0.791
v 0.423 0.177 0.847
v 0.453 -0.108 0.767
v -0.734 -0.022 0.73
v -0.61 -0.188 0.696
v 0.414 -0.337 0.461
v 0.68 0.276 0.786
v 0.734 0.567 0.606
v 0.665 0.801 0.763
v -0.194 -0.12 -0.839
v -0.005 0.108 -0.811
v 0.085 -0.289 -0.945
v -0.133 -0.502 -0.829
v 0.273 -0.018 -0.971
v 0.496 0.168 -0.866
v 0.446 -0.223 -0.9
v 0.577 -0.346 -0.651
v 0.235 -0.51 -0.867
v -0.36 -0.356 -0.565
v 0.693 0.383 -0.676
v 0.721 0.05 -0.691
v 0.02 -0.619 -0.569
v 0.67 0.095 0.676
v 0.573 -0.015 0.366
v 0.848 0.21 0.317
v 0.725 0.289 0.505
v 0.955 0.436 0.272
v 0.88 0.269 0.081
v 0.832 0.401 -0.186
v 0.808 0.649 0.014
v 0.545 -0.081 0.491
v 0.709 -0.13 0.141
v 0.689 0.421 -0.351
v -0.168 -0.597 0.263
v 0.099 -0.597 0.29
v -0.195 -0.604 0.487
v -0.138 -0.673 0.075
v 0.186 -0.558 -0.054
v 0.079 -0.647 -0.262
v 0.305 -0.384 -0.405
v 0.23 -0.415 0.453
v 0.297 -0.495 0.134
v 0.342 -0.339 -0.079
v 0.699 -0.261 -0.466
v 0.455 -0.412 0.226
v 0.48 -0.311 0.055
v 0.571 -0.271 -0.164
v 0.777 -0.103 -0.259
v 0.772 -0.045 -0.012
v 0.763 0.23 -0.334
v -0.703 -0.156 0.324
v -0.656 -0.321 0.141
v -0.567 -0.241 -0.055
v -0.564 -0.294 -0.344
v -0.527 -0.412 -0.215
v -0.812 -0.081 0.572
v -0.647 -0.375 0.481
v -0.251 -0.452 -0.29
v -0.398 -0.416 0.244
v -0.374 -0.604 -0.024
v -0.144 -0.6 -0.172
vt 0.901 -0.168
vt 1.329 -0.364
vt 1.232 -0.071
vt 0.571 -0.419
vt 1.009 -0.485
vt 1.274 -0.646
vt 1.087 -0.813
vt 1.573 -1.454
vt 1.606 -1.133
vt 1.3 -1.222
vt 1.269 -1.442
vt 1.52 -0.905
vt 1.737 -0.631
vt 2.594 2.313
vt 2.353 2.226
vt 2.594 1.808
vt 1.906 -0.214
vt 1.532 0.063
vt 1.532 -0.232
vt -0.084 0.678
vt -0.458 0.758
vt -0.32 0.334
vt 1.933 1.844
vt 1.982 2.222
vt 1.726 2.073
vt -0.004 0.371
vt 0.698 -0.024
vt 0.729 -0.729
vt 0.828 -0.915
vt 0.943 0.305
vt 1.084 0.16
vt 1.309 0.135
vt 1.39 -1.612
vt 1.705 -1.64
vt 1.906 -1.284
vt 2.356 2.508
vt 2.594 1.856
vt 2.792 1.808
vt 2.792 2.163
vt 0.99 -1.411
vt 0.34 -0.784
vt 0.612 -1.061
vt 0.113 -0.694
vt 0.11 -1.089
vt 0.391 0.513
vt 0.474 0.708
vt 0.1 0.637
vt -0.951 0.675
vt -1.04 0.34
vt -0.724 0.334
vt 0.134 0.931
vt 1.004 -1.792
vt 0.676 -1.591
vt 0.804 -1.33
vt 0.319 1.625
vt 0.07 1.271
vt 0.209 1.126
vt 0.367 -1.35
vt 0.515 -1.648
vt 0.295 -0.303
vt 0.07 -0.389
vt -0.59 1.029
vt -0.598 0.687
vt -0.458 0.925
vt 0.71 0.783
vt 0.531 1.173
vt -0.027 1.096
vt 0.055 1.198
vt -0.11 1.391
vt 0.055 1.59
vt 0.54 1.893
vt 0.236 1.75
vt 1.156 -1.677
vt 2.594 2.437
vt 2.737 2.163
vt 2.737 2.623
vt 0.605 1.498
vt -1.792 2.408
vt -1.694 2.021
vt -1.551 2.226
vt -0.11 1.519
vt -0.458 1.658
vt -0.267 1.096
vt -0.478 2.015
vt -0.692 1.741
vt -0.462 1.421
vt -0.878 2.021
vt 2.118 0.309
vt 1.744 0.602
vt 1.748 0.305
vt -0.859 2.021
vt -0.859 2.538
vt -1.061 2.316
vt -1.551 2.283
vt -1.33 2.021
vt -1.33 2.369
vt 0.058 1.59
vt 0.058 2.057
vt -0.11 1.679
vt 2.733 -0.148
vt 2.597 -0.526
vt 2.733 -0.644
vt -0.976 1.425
vt -1.23 1.711
vt -1.403 2.697
vt -0.936 0.906
vt -1.035 1.128
vt -1.288 1.262
vt -1.153 1.993
vt -1.42 2.021
vt -1.404 0.797
vt -1.554 1.581
vt -1.586 1.813
vt -1.061 2.431
vt -1.33 2.431
vt -1.277 2.021
vt -1.488 1.232
vt -1.684 1.492
vt -1.551 2.668
vt 2.227 0.482
vt 2.006 0.603
vt 2.705 0.29
vt 2.597 0.101
vt 2.705 -0.148
vt -0.81 0.334
vt -1.038 0.228
vt -0.709 0.16
vt -0.95 -0.192
vt -1.7 0.972
vt 0.998 0.305
vt 0.969 0.692
vt 0.743 0.427
vt -1.373 0.439
vt 0.233 -0.023
vt 1.906 -1.106
vt 1.932 -1.388
vt 2.285 -1.22
vt 2.236 -0.84
vt 2.274 -1.568
vt 1.959 2.517
vt 1.982 2.792
vt 1.645 2.629
vt 2.373 -1.792
vt 2.597 -1.475
vt -0.978 -1.528
vt -1.467 -1.713
vt -1.072 -1.792
vt 2.597 -1.094
vt 1.607 1.808
vt 1.434 2.116
vt 1.713 2.329
vt -0.251 2.286
vt 0.003 2.066
vt 0.003 2.391
vt 1.943 -0.644
vt 0.504 1.968
vt 0.708 2.188
vt 0.473 2.276
vt 0.749 2.514
vt 1.057 2.344
vt 1.106 2.725
vt 1.388 2.488
vt -0.593 2.39
vt -0.859 2.387
vt -0.593 2.021
vt 2.597 -0.331
vt 2.597 0.09
vt 2.215 0.015
vt 2.502 -0.685
vt -1.705 -1.322
vt -0.373 0.012
vt -0.595 -0.332
vt -0.179 -0.443
vt 1.434 0.825
vt 1.302 1.15
vt 1.212 0.923
vt 1.292 0.625
vt 0.07 -0.516
vt -0.219 -0.198
vt -0.148 -0.726
vt 0.932 1.623
vt 0.733 1.3
vt 1.119 1.089
vt 1.183 1.381
vt -0.012 -0.079
vt -0.645 -0.182
vt -0.571 -0.625
vt -1.792 1.143
vt 0.774 1.814
vt -1.74 -0.31
vt -1.466 -0.332
vt -1.734 -0.042
vt -1.515 0.06
vt -1.792 -0.537
vt -1.411 -0.752
vt -1.612 -0.974
vt -1.236 -1.186
vt -1.188 -0.165
vt -1.225 -0.553
vt -1.114 -0.81
vt -0.768 -1.334
vt -0.996 -0.476
vt -0.934 -0.681
vt -0.854 -0.955
vt -0.552 -1.106
vt 1.434 2.232
vt 1.388 1.927
vt -0.477 -0.815
vt 1.017 1.869
vt 1.407 1.63
vt -0.581 -1.6
vt 2.725 -1.497
vt 2.597 -1.701
vt 2.725 -1.792
vt -1.312 0.232
vt 2.67 0.865
vt 2.251 0.991
vt 2.563 0.695
vt 2.451 1.108
vt 2.536 1.329
vt 2.143 1.266
vt 2.242 1.465
vt 2.311 1.808
vt 2.123 1.717
vt -0.288 1.096
vt -0.004 0.97
vt 2.289 0.669
vt -0.11 1.933
vt -0.314 2.066
vt -0.393 1.863
vt 1.944 0.91
vt 2.188 1.923
vt 2.353 1.808
vt 2.353 2.225
vt 2.563 -0.644
vt 2.241 -0.451
vt 1.843 1.227
vt 1.763 1.603
vt -0.477 2.477
vt -0.593 2.236
vt -0.477 2.021
vt 1.982 2.206
vt 2.208 2.431
vt 1.434 1.061
vt 1.504 1.555
vt 1.988 2.494
vt 2.347 2.682
vt 1.906 -0.204
vt -0.458 2.271
vt -0.251 2.066
vt -0.251 2.502
vt -0.859 2.55
vt -0.627 2.39
vt -0.627 2.623
vt 2.67 1.758
vt 1.515 1.312
vt -1.738 0.334
vn -0.893 0.266 -0.363
vn -0.404 0.896 0.185
vn -0.818 0.409 -0.404
vn -0.754 0.441 -0.486
vn -0.195 0.881 -0.43
vn -0.09 0.559 -0.824
vn 0 0.625 -0.781
vn -0.289 0.564 -0.773
vn -0.785 0.582 -0.213
vn -0.374 0.378 -0.847
vn -0.292 0.173 -0.941
vn -0.953 0.259 -0.154
vn -0.815 0.456 -0.356
vn -0.466 0.121 -0.877
vn -0.708 0.674 -0.21
vn -0.591 0.806 0.027
vn -0.394 0.919 -0.034
vn -0.156 0.604 -0.782
vn -0.702 0.05 -0.71
vn -0.781 0.624 -0.039
vn -0.78 0.586 -0.218
vn -0.356 0.931 0.075
vn -0.647 0.709 0.28
vn -0.276 0.771 -0.574
vn -0.437 0.706 -0.557
vn -0.887 0.46 -0.029
vn -0.874 0.486 0.03
vn -0.74 0.363 -0.566
vn -0.945 0.325 -0.042
vn -0.963 0.245 0.111
vn 0.061 0.939 -0.339
vn -0.07 0.668 -0.741
vn -0.704 0.141 -0.696
vn 0.269 0.632 -0.727
vn 0.073 0.909 -0.411
vn -0.79 0.588 -0.176
vn -0.911 0.412 -0.001
vn -0.359 0.791 -0.495
vn -0.32 0.807 0.497
vn 0.381 0.918 0.116
vn -0.131 0.626 0.769
vn 0.379 0.921 0.089
vn -0.254 0.637 -0.728
vn -0.562 0.802 -0.202
vn 0.413 0.829 -0.378
vn -0.247 0.635 -0.732
vn -0.385 0.919 -0.082
vn -0.383 0.92 -0.083
vn -0.179 0.958 -0.226
vn 0.085 0.996 0.031
vn 0.26 0.938 0.229
vn -0.36 0.798 -0.484
vn -0.252 0.862 -0.44
vn -0.379 0.897 -0.228
vn -0.902 0.402 -0.157
vn -0.12 0.888 0.444
vn -0.809 0.575 0.125
vn 0.161 0.817 0.554
vn -0.072 0.867 0.493
vn 0.456 0.868 0.199
vn 0.806 0.537 -0.251
vn 0.001 0.64 0.768
vn 0.139 0.342 -0.929
vn -0.048 0.322 -0.945
vn 0.344 0.459 -0.819
vn -0.243 0.902 -0.357
vn 0.216 0.781 -0.585
vn -0.547 0.824 -0.145
vn -0.091 0.971 -0.219
vn 0.815 0.553 -0.174
vn 0.662 0.738 -0.127
vn -0.923 0.073 0.377
vn -0.89 0.414 0.19
vn -0.651 0.161 0.742
vn -0.449 -0.335 0.828
vn -0.509 -0.555 0.659
vn -0.054 -0.679 0.732
vn -0.003 -0.789 0.614
vn -0.577 0.625 0.526
vn -0.486 0.623 0.613
vn -0.003 0.306 0.952
vn -0.103 0.133 0.986
vn 0.196 -0.272 0.942
vn 0.147 -0.349 0.925
vn 0.194 -0.62 0.76
vn 0.201 0.77 0.606
vn 0.107 0.025 0.994
vn 0.29 0.228 0.93
vn 0.086 0.399 0.913
vn 0.068 -0.298 0.952
vn -0.002 -0.503 0.864
vn 0.182 0.778 0.602
vn -0.1 0.287 0.953
vn 0.15 -0.35 0.925
vn 0.116 -0.487 0.866
vn -0.041 0.041 0.998
vn 0.611 -0.441 0.658
vn 0.758 -0.149 0.635
vn 0.708 -0.122 0.695
vn -0.912 0.053 0.407
vn -0.618 -0.572 0.539
vn -0.617 -0.573 0.54
vn -0.237 -0.691 0.682
vn 0.094 -0.501 0.86
vn 0.593 -0.537 0.6
vn 0.664 -0.637 0.392
vn 0.359 -0.419 0.834
vn 0.899 -0.029 0.437
vn -0.016 0.551 0.834
vn -0.017 0.671 0.742
vn -0.538 0.84 0.072
vn -0.668 0.733 -0.128
vn -0.192 0.275 -0.942
vn -0.399 -0.087 -0.913
vn -0.417 0.204 -0.886
vn 0.016 0.477 -0.879
vn 0.408 0.027 -0.913
vn 0.619 -0.524 -0.585
vn 0.163 -0.231 -0.959
vn -0.102 -0.393 -0.914
vn 0.158 -0.202 -0.966
vn -0.83 0.225 -0.511
vn -0.275 0.707 -0.652
vn -0.407 0.435 -0.803
vn -0.867 0.033 -0.497
vn -0.789 -0.141 -0.599
vn 0.445 0.806 -0.391
vn 0.447 0.325 -0.834
vn 0.639 0.087 -0.764
vn 0.611 -0.009 -0.792
vn 0.757 -0.331 -0.563
vn -0.064 0.328 -0.943
vn -0.271 0.733 -0.624
vn -0.344 0.347 -0.873
vn -0.644 0.54 -0.542
vn -0.57 -0.821 -0.035
vn -0.059 -0.922 -0.382
vn 0.439 -0.898 -0.015
vn 0.638 -0.767 0.071
vn 0.857 0.18 0.482
vn 0.978 -0.146 0.151
vn 0.763 -0.242 0.599
vn 0.905 -0.425 0.018
vn 0.994 0.006 0.11
vn 0.898 0.34 -0.281
vn 0.984 -0.086 0.155
vn 0.876 -0.063 0.478
vn 0.463 0.825 0.325
vn 0.896 0.094 -0.433
vn 0.836 0.01 0.549
vn 0.913 0.307 -0.268
vn 0.763 -0.241 0.6
vn 0.855 -0.511 -0.087
vn 0.92 -0.391 0.028
vn 0.56 -0.551 0.619
vn 0.709 -0.683 0.173
vn 0.518 -0.182 0.836
vn 0.376 -0.496 0.783
vn 0.739 0.339 -0.583
vn 0.881 -0.194 -0.432
vn 0.956 0.232 0.182
vn 0.756 -0.02 -0.655
vn 0.981 0.17 -0.094
vn 0.54 0.787 0.297
vn 0.893 0.106 0.438
vn 0.004 -1 -0.028
vn 0.243 -0.912 0.331
vn 0.325 -0.945 -0.025
vn 0.731 -0.677 -0.086
vn 0.514 -0.747 0.422
vn 0.47 -0.882 0.018
vn 0.772 -0.58 -0.262
vn 0.814 -0.581 -0.011
vn 0.312 -0.945 0.097
vn 0.617 -0.722 0.312
vn 0.307 -0.906 0.292
vn 0.549 -0.726 -0.416
vn 0.586 -0.733 -0.345
vn 0.317 -0.943 0.101
vn 0.355 -0.871 0.341
vn 0.259 -0.963 -0.069
vn 0.679 -0.685 0.265
vn 0.957 -0.212 -0.199
vn 0.892 -0.36 0.274
vn 0.67 -0.415 0.615
vn 0.659 -0.687 -0.308
vn 0.648 -0.747 -0.152
vn 0.686 -0.712 0.153
vn 0.67 -0.719 0.185
vn 0.89 -0.453 -0.048
vn 0.999 0.043 0.012
vn 0.992 0.012 -0.124
vn -0.036 -0.929 0.368
vn 0.453 -0.809 0.374
vn 0.323 -0.922 0.213
vn 0.849 -0.348 -0.398
vn 0.983 0.089 -0.162
vn 0.933 0.36 -0.03
vn 0.987 0.16 -0.006
vn -0.042 0.669 -0.743
vn 0.75 0.237 -0.618
vn 0.957 -0.207 -0.201
vn 0.928 -0.237 -0.287
vn 0.914 -0.367 0.172
vn 0.851 -0.467 0.241
vn 0.366 -0.89 0.271
vn 0.359 -0.893 0.272
vn 0.496 -0.795 0.349
vn -0.972 -0.137 -0.191
vn -0.909 -0.147 -0.39
vn -0.99 -0.026 0.137
vn -0.965 -0.259 0.038
vn -0.744 -0.28 -0.607
vn -0.919 -0.046 -0.391
vn -0.899 0.264 0.348
vn -0.969 0.001 -0.248
vn -0.786 -0.354 -0.506
vn -0.966 -0.258 -0.013
vn -0.873 -0.412 -0.259
vn -0.273 -0.747 -0.606
vn -0.427 -0.893 -0.144
vn -0.629 -0.529 0.57
vn -0.291 -0.946 -0.141
vn -0.731 -0.675 -0.094
vn -0.465 -0.744 0.48
vn -0.921 0.129 -0.368
vn -0.359 -0.729 -0.583
vn -0.268 -0.778 -0.569
vn -0.428 -0.853 -0.3
vn -0.428 -0.758 0.493
vn -0.159 -0.947 -0.279
vn -0.383 -0.731 -0.565
vn -0.51 -0.86 0.02
vn -0.717 0.34 0.609
vn -0.79 0.024 -0.612
vn -0.885 -0.459 0.075
vn -0.959 -0.22 -0.179
vn -0.501 -0.008 -0.865
vn -0.569 -0.82 -0.062
vn 0.688 -0.699 -0.194
vn 0.393 -0.901 0.184
vn -0.302 -0.915 -0.266
vn -0.614 -0.76 0.211
vn -0.61 -0.786 -0.097
vn -0.402 -0.783 0.474
vn -0.111 -0.733 0.671
vn -0.61 -0.542 0.578
vn -0.626 -0.576 0.525
vn -0.704 0.504 0.5
vn -0.748 0.519 0.414
s off
f 1/1/1 2/2/1 3/3/1
f 4/4/2 5/5/2 1/1/2
f 1/1/3 5/5/3 2/2/3
f 5/5/4 6/6/4 2/2/4
f 5/5/5 7/7/5 6/6/5
f 8/8/6 9/9/6 10/10/6
f 11/11/7 8/8/7 10/10/7
f 10/10/8 9/9/8 12/12/8
f 12/12/9 13/13/9 6/6/9
f 9/9/10 13/13/10 12/12/10
f 9/14/11 14/15/11 13/16/11
f 15/17/12 16/18/12 17/19/12
f 15/17/13 17/19/13 13/13/13
f 18/20/14 15/21/14 13/22/14
f 17/19/15 2/2/15 13/13/15
f 10/10/16 12/12/16 7/7/16
f 7/7/17 12/12/17 6/6/17
f 13/23/18 14/24/18 19/25/18
f 18/20/19 13/22/19 19/26/19
f 3/3/20 2/2/20 17/19/20
f 13/13/21 2/2/21 6/6/21
f 20/27/22 4/4/22 1/1/22
f 4/4/23 21/28/23 5/5/23
f 21/28/24 7/7/24 5/5/24
f 21/28/25 22/29/25 7/7/25
f 20/27/26 1/1/26 23/30/26
f 24/31/27 23/30/27 1/1/27
f 1/1/28 3/3/28 24/31/28
f 3/3/29 17/19/29 16/18/29
f 25/32/30 3/3/30 16/18/30
f 26/33/31 27/34/31 8/8/31
f 8/8/32 28/35/32 9/9/32
f 9/14/33 28/36/33 14/15/33
f 26/37/34 8/38/34 11/39/34
f 11/11/35 10/10/35 29/40/35
f 10/10/36 7/7/36 22/29/36
f 4/4/37 30/41/37 21/28/37
f 30/41/38 31/42/38 21/28/38
f 32/43/39 33/44/39 30/41/39
f 34/45/40 35/46/40 33/47/40
f 36/48/41 34/49/41 33/50/41
f 35/46/42 37/51/42 33/47/42
f 38/52/43 29/40/43 39/53/43
f 40/54/44 22/29/44 31/42/44
f 38/55/45 39/56/45 41/57/45
f 29/40/46 40/54/46 39/53/46
f 39/53/47 40/54/47 37/58/47
f 40/54/48 31/42/48 37/58/48
f 33/44/49 37/58/49 30/41/49
f 41/59/50 39/53/50 37/58/50
f 41/57/51 37/51/51 35/46/51
f 31/42/52 22/29/52 21/28/52
f 30/41/53 37/58/53 31/42/53
f 20/27/54 42/60/54 4/4/54
f 42/60/55 30/41/55 4/4/55
f 43/61/56 32/43/56 30/41/56
f 42/60/57 43/61/57 30/41/57
f 44/62/58 36/48/58 32/63/58
f 44/62/59 32/63/59 43/64/59
f 45/65/60 41/57/60 35/46/60
f 45/65/61 46/66/61 41/57/61
f 36/48/62 33/50/62 32/63/62
f 47/67/63 26/68/63 48/69/63
f 26/68/64 11/70/64 48/69/64
f 47/71/65 48/72/65 38/55/65
f 48/73/66 11/11/66 29/40/66
f 29/74/67 10/75/67 40/76/67
f 40/54/68 10/10/68 22/29/68
f 48/73/69 29/40/69 38/52/69
f 46/66/70 38/55/70 41/57/70
f 49/77/71 38/55/71 46/66/71
f 50/78/72 51/79/72 52/80/72
f 50/81/73 53/82/73 51/83/73
f 53/84/74 54/85/74 51/86/74
f 53/84/75 55/87/75 54/85/75
f 53/88/76 56/89/76 55/90/76
f 56/91/77 57/92/77 58/93/77
f 55/94/78 56/95/78 58/96/78
f 43/97/79 51/98/79 44/99/79
f 43/100/80 52/101/80 51/102/80
f 51/86/81 54/85/81 59/103/81
f 44/62/82 51/86/82 59/103/82
f 54/85/83 60/104/83 59/103/83
f 54/85/84 55/87/84 60/104/84
f 55/94/85 58/96/85 60/105/85
f 44/62/86 61/106/86 36/48/86
f 44/62/87 62/107/87 61/106/87
f 44/62/88 59/103/88 62/107/88
f 59/103/89 63/108/89 62/107/89
f 63/108/90 59/103/90 60/104/90
f 58/109/91 64/110/91 60/104/91
f 36/48/92 61/106/92 65/111/92
f 62/107/93 63/108/93 65/111/93
f 63/108/94 60/104/94 66/112/94
f 60/104/95 67/113/95 66/112/95
f 62/107/96 65/111/96 61/106/96
f 63/114/97 68/115/97 65/116/97
f 63/108/98 66/112/98 68/117/98
f 66/112/99 69/118/99 68/117/99
f 20/119/100 50/78/100 52/80/100
f 70/120/101 71/121/101 53/88/101
f 71/121/102 56/89/102 53/88/102
f 57/122/103 64/123/103 58/124/103
f 64/110/104 67/113/104 60/104/104
f 66/125/105 67/126/105 69/127/105
f 69/127/106 67/126/106 72/128/106
f 65/111/107 68/117/107 73/129/107
f 65/130/108 74/131/108 75/132/108
f 36/48/109 75/133/109 34/49/109
f 36/48/110 65/111/110 75/133/110
f 20/27/111 52/134/111 42/60/111
f 52/134/112 43/61/112 42/60/112
f 76/135/113 77/136/113 78/137/113
f 76/135/114 78/137/114 79/138/114
f 78/137/115 77/136/115 80/139/115
f 28/140/116 81/141/116 80/142/116
f 81/143/117 82/144/117 80/139/117
f 83/145/118 84/146/118 82/147/118
f 84/148/119 78/137/119 82/144/119
f 79/138/120 78/137/120 84/148/120
f 78/137/121 80/139/121 82/144/121
f 18/149/122 19/25/122 76/150/122
f 19/25/123 14/24/123 77/151/123
f 19/25/124 77/151/124 76/150/124
f 18/152/125 76/153/125 85/154/125
f 85/155/126 76/135/126 79/138/126
f 26/156/127 86/157/127 27/158/127
f 86/157/128 81/159/128 27/158/128
f 86/157/129 87/160/129 81/159/129
f 81/159/130 87/160/130 82/161/130
f 87/160/131 83/162/131 82/161/131
f 27/163/132 81/164/132 28/165/132
f 27/34/133 28/35/133 8/8/133
f 28/140/134 80/142/134 77/151/134
f 28/140/135 77/151/135 14/24/135
f 85/166/136 79/167/136 88/168/136
f 88/169/137 79/138/137 84/148/137
f 88/170/138 84/146/138 83/145/138
f 89/171/139 90/172/139 91/173/139
f 89/174/140 91/175/140 92/176/140
f 92/176/141 73/177/141 89/174/141
f 91/173/142 93/178/142 92/179/142
f 91/173/143 94/180/143 93/178/143
f 95/181/144 49/77/144 96/182/144
f 46/66/145 45/65/145 96/182/145
f 74/131/146 73/177/146 92/176/146
f 75/132/147 74/131/147 45/65/147
f 75/132/148 45/65/148 35/46/148
f 96/182/149 93/183/149 94/184/149
f 74/131/150 93/183/150 45/65/150
f 45/65/151 93/183/151 96/182/151
f 92/179/152 93/178/152 74/185/152
f 97/186/153 90/172/153 89/171/153
f 98/187/154 94/180/154 91/173/154
f 90/172/155 98/187/155 91/173/155
f 69/127/156 97/186/156 89/171/156
f 69/118/157 89/188/157 68/117/157
f 68/117/158 89/188/158 73/129/158
f 47/71/159 38/55/159 49/77/159
f 47/71/160 49/77/160 99/189/160
f 49/77/161 46/66/161 96/182/161
f 99/189/162 49/77/162 95/181/162
f 95/181/163 96/182/163 94/184/163
f 34/45/164 75/132/164 35/46/164
f 65/130/165 73/177/165 74/131/165
f 100/190/166 101/191/166 102/192/166
f 102/192/167 101/191/167 57/193/167
f 101/191/168 103/194/168 104/195/168
f 105/196/169 106/197/169 104/195/169
f 57/193/170 101/191/170 107/198/170
f 101/191/171 104/195/171 108/199/171
f 104/195/172 109/200/172 108/199/172
f 104/195/173 106/197/173 109/200/173
f 106/197/174 110/201/174 109/200/174
f 101/191/175 108/199/175 107/198/175
f 108/199/176 111/202/176 107/198/176
f 108/199/177 109/200/177 112/203/177
f 111/202/178 108/199/178 112/203/178
f 109/200/179 110/201/179 113/204/179
f 107/198/180 111/202/180 72/128/180
f 109/200/181 113/204/181 112/203/181
f 113/204/182 110/201/182 114/205/182
f 110/206/183 87/160/183 114/207/183
f 72/128/184 111/202/184 90/172/184
f 111/202/185 98/187/185 90/172/185
f 111/202/186 112/203/186 98/187/186
f 112/203/187 115/208/187 98/187/187
f 112/203/188 113/204/188 115/208/188
f 113/204/189 114/205/189 115/208/189
f 72/128/190 90/172/190 97/186/190
f 114/207/191 116/209/191 115/210/191
f 87/160/192 116/209/192 114/207/192
f 100/190/193 103/194/193 101/191/193
f 106/197/194 88/170/194 83/145/194
f 106/197/195 83/145/195 110/201/195
f 83/145/196 87/211/196 110/201/196
f 86/157/197 116/209/197 87/160/197
f 116/209/198 86/157/198 99/189/198
f 99/189/199 86/157/199 47/71/199
f 86/212/200 26/213/200 47/214/200
f 95/181/201 116/209/201 99/189/201
f 115/210/202 116/209/202 95/181/202
f 115/210/203 95/181/203 94/184/203
f 115/208/204 94/180/204 98/187/204
f 69/127/205 72/128/205 97/186/205
f 67/126/206 107/198/206 72/128/206
f 67/126/207 64/215/207 107/198/207
f 57/193/208 107/198/208 64/215/208
f 24/216/209 117/217/209 23/218/209
f 117/217/210 24/216/210 25/219/210
f 25/219/211 16/220/211 118/221/211
f 119/222/212 120/223/212 121/224/212
f 120/225/213 15/21/213 85/226/213
f 23/218/214 117/217/214 122/227/214
f 23/228/215 122/229/215 70/230/215
f 25/219/216 118/221/216 117/217/216
f 16/220/217 119/222/217 118/221/217
f 117/217/218 118/221/218 123/231/218
f 117/217/219 123/231/219 122/227/219
f 121/232/220 120/233/220 124/234/220
f 120/235/221 85/166/221 124/236/221
f 122/227/222 123/231/222 71/121/222
f 123/231/223 118/221/223 125/237/223
f 118/221/224 121/224/224 126/238/224
f 118/221/225 126/238/225 125/237/225
f 118/239/226 119/240/226 121/241/226
f 126/242/227 124/234/227 127/243/227
f 121/232/228 124/234/228 126/242/228
f 102/244/229 123/231/229 125/237/229
f 125/237/230 126/238/230 103/245/230
f 126/242/231 127/243/231 103/246/231
f 127/243/232 124/234/232 105/247/232
f 124/236/233 88/168/233 105/248/233
f 50/249/234 20/250/234 23/251/234
f 3/252/235 25/253/235 24/254/235
f 119/222/236 16/220/236 120/223/236
f 16/220/237 15/255/237 120/223/237
f 15/21/238 18/20/238 85/226/238
f 124/236/239 85/166/239 88/168/239
f 105/196/240 88/170/240 106/197/240
f 103/194/241 105/196/241 104/195/241
f 103/246/242 127/243/242 105/247/242
f 125/237/243 103/245/243 100/256/243
f 102/244/244 125/237/244 100/256/244
f 123/231/245 102/244/245 56/89/245
f 57/193/246 56/257/246 102/192/246
f 71/121/247 123/231/247 56/89/247
f 70/120/248 122/227/248 71/121/248
f 70/230/249 50/81/249 23/228/249
f 50/81/250 70/230/250 53/82/250
